<svg xmlns="http://www.w3.org/2000/svg" xmlns:xlink="http://www.w3.org/1999/xlink" width="500" zoomAndPan="magnify" viewBox="0 0 375 374.999991" height="500" preserveAspectRatio="xMidYMid meet" version="1.0"><defs><clipPath id="631bcf80d3"><path d="M 89.613281 199.265625 L 156.785156 199.265625 L 156.785156 269.851562 L 89.613281 269.851562 Z M 89.613281 199.265625 " clip-rule="nonzero"/></clipPath><clipPath id="cfb19367fb"><path d="M 89.613281 260.101562 L 89.613281 209.109375 C 89.613281 203.722656 93.976562 199.359375 99.363281 199.359375 L 147.035156 199.359375 C 152.421875 199.359375 156.785156 203.722656 156.785156 209.109375 L 156.785156 260.101562 C 156.785156 265.484375 152.421875 269.851562 147.035156 269.851562 L 99.363281 269.851562 C 93.976562 269.851562 89.613281 265.484375 89.613281 260.101562 Z M 89.613281 260.101562 " clip-rule="nonzero"/></clipPath><clipPath id="a89e9345e6"><path d="M 0.613281 0.265625 L 67.785156 0.265625 L 67.785156 70.851562 L 0.613281 70.851562 Z M 0.613281 0.265625 " clip-rule="nonzero"/></clipPath><clipPath id="6a12ed2c23"><path d="M 0.613281 61.101562 L 0.613281 10.109375 C 0.613281 4.722656 4.976562 0.359375 10.363281 0.359375 L 58.035156 0.359375 C 63.421875 0.359375 67.785156 4.722656 67.785156 10.109375 L 67.785156 61.101562 C 67.785156 66.484375 63.421875 70.851562 58.035156 70.851562 L 10.363281 70.851562 C 4.976562 70.851562 0.613281 66.484375 0.613281 61.101562 Z M 0.613281 61.101562 " clip-rule="nonzero"/></clipPath><clipPath id="9c78b4f059"><rect x="0" width="68" y="0" height="71"/></clipPath><clipPath id="49b93e17b2"><path d="M 4 28 L 50 28 L 50 74 L 4 74 Z M 4 28 " clip-rule="nonzero"/></clipPath><clipPath id="2507d91bea"><path d="M 0.378906 63.089844 L 38.828125 24.636719 L 53.585938 39.394531 L 15.136719 77.847656 Z M 0.378906 63.089844 " clip-rule="nonzero"/></clipPath><clipPath id="df1571def7"><path d="M 7.269531 56.195312 L 31.921875 31.542969 C 33.75 29.714844 36.230469 28.6875 38.816406 28.6875 C 41.402344 28.6875 43.882812 29.714844 45.710938 31.542969 L 46.679688 32.511719 C 48.507812 34.339844 49.535156 36.820312 49.535156 39.40625 C 49.535156 41.992188 48.507812 44.472656 46.679688 46.300781 L 22.03125 70.953125 C 20.199219 72.78125 17.722656 73.808594 15.136719 73.808594 C 12.550781 73.808594 10.070312 72.78125 8.242188 70.953125 L 7.269531 69.984375 C 5.441406 68.152344 4.414062 65.675781 4.414062 63.089844 C 4.414062 60.503906 5.441406 58.023438 7.269531 56.195312 Z M 7.269531 56.195312 " clip-rule="nonzero"/></clipPath><clipPath id="8daa33f2ce"><path d="M 0.199219 0.558594 L 45.558594 0.558594 L 45.558594 45.921875 L 0.199219 45.921875 Z M 0.199219 0.558594 " clip-rule="nonzero"/></clipPath><clipPath id="470a60a197"><path d="M -3.621094 35.089844 L 34.828125 -3.363281 L 49.585938 11.394531 L 11.136719 49.847656 Z M -3.621094 35.089844 " clip-rule="nonzero"/></clipPath><clipPath id="156d479827"><path d="M 3.269531 28.195312 L 27.921875 3.542969 C 29.75 1.714844 32.230469 0.6875 34.816406 0.6875 C 37.402344 0.6875 39.882812 1.714844 41.710938 3.542969 L 42.679688 4.511719 C 44.507812 6.339844 45.535156 8.820312 45.535156 11.40625 C 45.535156 13.992188 44.507812 16.472656 42.679688 18.300781 L 18.03125 42.953125 C 16.199219 44.78125 13.722656 45.808594 11.136719 45.808594 C 8.550781 45.808594 6.070312 44.78125 4.242188 42.953125 L 3.269531 41.984375 C 1.441406 40.152344 0.414062 37.675781 0.414062 35.089844 C 0.414062 32.503906 1.441406 30.023438 3.269531 28.195312 Z M 3.269531 28.195312 " clip-rule="nonzero"/></clipPath><clipPath id="40124ad753"><rect x="0" width="46" y="0" height="46"/></clipPath><clipPath id="7c21db0763"><path d="M 4 5 L 50 5 L 50 51 L 4 51 Z M 4 5 " clip-rule="nonzero"/></clipPath><clipPath id="d4f3836622"><path d="M 15.121094 0.972656 L 53.570312 39.425781 L 38.8125 54.183594 L 0.359375 15.730469 Z M 15.121094 0.972656 " clip-rule="nonzero"/></clipPath><clipPath id="4e641bec83"><path d="M 22.011719 7.867188 L 46.664062 32.519531 C 48.492188 34.347656 49.519531 36.828125 49.519531 39.414062 C 49.519531 42 48.492188 44.480469 46.664062 46.308594 L 45.695312 47.277344 C 43.867188 49.105469 41.386719 50.132812 38.800781 50.132812 C 36.214844 50.132812 33.734375 49.105469 31.90625 47.277344 L 7.253906 22.625 C 5.425781 20.796875 4.398438 18.316406 4.398438 15.730469 C 4.398438 13.144531 5.425781 10.664062 7.253906 8.835938 L 8.226562 7.867188 C 10.054688 6.039062 12.535156 5.011719 15.121094 5.011719 C 17.703125 5.011719 20.183594 6.039062 22.011719 7.867188 Z M 22.011719 7.867188 " clip-rule="nonzero"/></clipPath><clipPath id="a494841620"><path d="M 0.199219 0 L 45.558594 0 L 45.558594 45.160156 L 0.199219 45.160156 Z M 0.199219 0 " clip-rule="nonzero"/></clipPath><clipPath id="22591a3670"><path d="M 11.121094 -4.027344 L 49.570312 34.425781 L 34.8125 49.183594 L -3.640625 10.730469 Z M 11.121094 -4.027344 " clip-rule="nonzero"/></clipPath><clipPath id="2ed88f6f6c"><path d="M 18.011719 2.867188 L 42.664062 27.519531 C 44.492188 29.347656 45.519531 31.828125 45.519531 34.414062 C 45.519531 37 44.492188 39.480469 42.664062 41.308594 L 41.695312 42.277344 C 39.867188 44.105469 37.386719 45.132812 34.800781 45.132812 C 32.214844 45.132812 29.734375 44.105469 27.90625 42.277344 L 3.253906 17.625 C 1.425781 15.796875 0.398438 13.316406 0.398438 10.730469 C 0.398438 8.144531 1.425781 5.664062 3.253906 3.835938 L 4.226562 2.867188 C 6.054688 1.039062 8.535156 0.0117188 11.121094 0.0117188 C 13.703125 0.0117188 16.183594 1.039062 18.011719 2.867188 Z M 18.011719 2.867188 " clip-rule="nonzero"/></clipPath><clipPath id="1afe99bc6e"><rect x="0" width="46" y="0" height="46"/></clipPath><clipPath id="3005fee35a"><path d="M 62.269531 56.980469 L 116.648438 56.980469 L 116.648438 77.851562 L 62.269531 77.851562 Z M 62.269531 56.980469 " clip-rule="nonzero"/></clipPath><clipPath id="2e4f0957bc"><path d="M 72.019531 56.980469 L 106.878906 56.980469 C 109.464844 56.980469 111.945312 58.007812 113.773438 59.835938 C 115.601562 61.664062 116.628906 64.144531 116.628906 66.730469 L 116.628906 68.101562 C 116.628906 70.6875 115.601562 73.167969 113.773438 74.996094 C 111.945312 76.824219 109.464844 77.851562 106.878906 77.851562 L 72.019531 77.851562 C 69.433594 77.851562 66.953125 76.824219 65.125 74.996094 C 63.296875 73.167969 62.269531 70.6875 62.269531 68.101562 L 62.269531 66.730469 C 62.269531 64.144531 63.296875 61.664062 65.125 59.835938 C 66.953125 58.007812 69.433594 56.980469 72.019531 56.980469 Z M 72.019531 56.980469 " clip-rule="nonzero"/></clipPath><clipPath id="5cbd4be29a"><path d="M 0.269531 0.980469 L 54.648438 0.980469 L 54.648438 21.851562 L 0.269531 21.851562 Z M 0.269531 0.980469 " clip-rule="nonzero"/></clipPath><clipPath id="b18e3a8c33"><path d="M 10.019531 0.980469 L 44.878906 0.980469 C 47.464844 0.980469 49.945312 2.007812 51.773438 3.835938 C 53.601562 5.664062 54.628906 8.144531 54.628906 10.730469 L 54.628906 12.101562 C 54.628906 14.6875 53.601562 17.167969 51.773438 18.996094 C 49.945312 20.824219 47.464844 21.851562 44.878906 21.851562 L 10.019531 21.851562 C 7.433594 21.851562 4.953125 20.824219 3.125 18.996094 C 1.296875 17.167969 0.269531 14.6875 0.269531 12.101562 L 0.269531 10.730469 C 0.269531 8.144531 1.296875 5.664062 3.125 3.835938 C 4.953125 2.007812 7.433594 0.980469 10.019531 0.980469 Z M 10.019531 0.980469 " clip-rule="nonzero"/></clipPath><clipPath id="7f5aea8c63"><rect x="0" width="55" y="0" height="22"/></clipPath><clipPath id="4f8ffd2c02"><rect x="0" width="117" y="0" height="78"/></clipPath></defs><rect x="-37.5" width="450" fill="#ffffff" y="-37.499999" height="449.999989" fill-opacity="1"/><rect x="-37.5" width="450" fill="#000000" y="-37.499999" height="449.999989" fill-opacity="1"/><path fill="#ffffff" d="M 345.660156 181.875 C 345.691406 182.261719 345.660156 182.652344 345.714844 183.035156 C 346.089844 187.527344 346.328125 192.023438 346.328125 196.5 L 346.328125 230.988281 C 346.328125 234.101562 346.148438 237.183594 345.886719 240.246094 C 345.804688 241.132812 345.699219 242.011719 345.601562 242.890625 C 345.34375 245.210938 345.007812 247.515625 344.59375 249.804688 C 344.449219 250.609375 344.324219 251.425781 344.160156 252.230469 C 343.582031 255.074219 342.914062 257.894531 342.101562 260.679688 C 343.175781 260.421875 344.242188 260.125 345.292969 259.785156 C 346.34375 259.445312 347.382812 259.0625 348.402344 258.636719 C 349.421875 258.214844 350.425781 257.75 351.410156 257.242188 C 352.394531 256.738281 353.355469 256.195312 354.292969 255.609375 C 355.234375 255.027344 356.148438 254.40625 357.035156 253.75 C 357.925781 253.09375 358.785156 252.402344 359.621094 251.675781 C 360.453125 250.949219 361.253906 250.1875 362.027344 249.398438 C 362.800781 248.605469 363.539062 247.785156 364.242188 246.933594 C 364.949219 246.082031 365.617188 245.203125 366.253906 244.296875 C 366.886719 243.390625 367.484375 242.460938 368.042969 241.507812 C 368.601562 240.554688 369.121094 239.578125 369.601562 238.582031 C 370.082031 237.585938 370.519531 236.574219 370.917969 235.542969 C 371.316406 234.511719 371.671875 233.464844 371.988281 232.40625 C 372.300781 231.34375 372.570312 230.273438 372.796875 229.191406 C 373.023438 228.109375 373.207031 227.019531 373.347656 225.921875 C 373.484375 224.824219 373.582031 223.726562 373.628906 222.621094 C 373.679688 221.515625 373.683594 220.410156 373.644531 219.308594 C 373.605469 218.203125 373.523438 217.101562 373.394531 216.003906 C 373.265625 214.902344 373.09375 213.8125 372.875 212.730469 C 372.660156 211.644531 372.398438 210.570312 372.09375 209.507812 C 371.792969 208.445312 371.445312 207.394531 371.058594 206.359375 C 370.667969 205.324219 370.238281 204.308594 369.765625 203.308594 C 369.296875 202.308594 368.785156 201.328125 368.234375 200.367188 C 367.6875 199.410156 367.097656 198.472656 366.472656 197.5625 C 365.847656 196.652344 365.183594 195.765625 364.488281 194.90625 C 363.789062 194.050781 363.058594 193.222656 362.296875 192.421875 C 361.53125 191.625 360.734375 190.855469 359.910156 190.121094 C 359.082031 189.386719 358.226562 188.6875 357.34375 188.023438 C 356.460938 187.355469 355.554688 186.726562 354.621094 186.136719 C 353.6875 185.542969 352.730469 184.992188 351.75 184.476562 C 350.773438 183.960938 349.777344 183.488281 348.757812 183.054688 C 347.742188 182.621094 346.707031 182.226562 345.660156 181.875 Z M 345.660156 181.875 " fill-opacity="1" fill-rule="nonzero"/><path fill="#ffffff" d="M 32.394531 249.726562 C 31.992188 247.460938 31.664062 245.183594 31.402344 242.890625 C 31.304688 242 31.195312 241.113281 31.117188 240.246094 C 30.851562 237.183594 30.675781 234.109375 30.675781 230.988281 L 30.675781 196.480469 C 30.675781 191.996094 30.914062 187.492188 31.296875 182.996094 C 31.296875 182.625 31.296875 182.253906 31.34375 181.882812 C 25.230469 183.933594 19.890625 187.238281 15.328125 191.796875 C 14.042969 193.082031 12.847656 194.445312 11.742188 195.886719 C 10.636719 197.332031 9.632812 198.839844 8.730469 200.417969 C 7.824219 201.992188 7.027344 203.621094 6.339844 205.304688 C 5.652344 206.988281 5.082031 208.707031 4.621094 210.464844 C 4.164062 212.226562 3.824219 214.007812 3.601562 215.808594 C 3.382812 217.613281 3.28125 219.425781 3.300781 221.242188 C 3.320312 223.058594 3.460938 224.867188 3.71875 226.664062 C 3.980469 228.464844 4.359375 230.238281 4.855469 231.984375 C 5.351562 233.734375 5.960938 235.441406 6.683594 237.109375 C 7.410156 238.777344 8.238281 240.386719 9.175781 241.945312 C 10.113281 243.5 11.152344 244.988281 12.289062 246.40625 C 13.425781 247.824219 14.648438 249.164062 15.964844 250.417969 C 17.277344 251.675781 18.667969 252.835938 20.136719 253.90625 C 21.605469 254.976562 23.140625 255.945312 24.738281 256.8125 C 26.335938 257.679688 27.980469 258.4375 29.679688 259.082031 C 31.378906 259.730469 33.113281 260.261719 34.882812 260.679688 C 34.066406 257.898438 33.40625 255.089844 32.824219 252.25 C 32.652344 251.410156 32.519531 250.566406 32.394531 249.726562 Z M 32.394531 249.726562 " fill-opacity="1" fill-rule="nonzero"/><path fill="#ffffff" d="M 188.488281 51.84375 C 186.355469 51.855469 184.222656 51.910156 182.089844 52.015625 C 179.960938 52.121094 177.832031 52.273438 175.707031 52.46875 C 173.582031 52.667969 171.464844 52.914062 169.351562 53.207031 C 167.238281 53.496094 165.132812 53.835938 163.03125 54.21875 C 160.933594 54.601562 158.84375 55.03125 156.765625 55.507812 C 154.683594 55.984375 152.617188 56.507812 150.558594 57.074219 C 148.503906 57.640625 146.457031 58.253906 144.429688 58.910156 C 142.398438 59.566406 140.382812 60.265625 138.386719 61.011719 C 136.386719 61.757812 134.40625 62.546875 132.441406 63.378906 C 130.476562 64.210938 128.53125 65.089844 126.605469 66.007812 C 124.679688 66.925781 122.773438 67.886719 120.890625 68.886719 C 119.007812 69.890625 117.144531 70.933594 115.308594 72.015625 C 113.46875 73.101562 111.65625 74.222656 109.867188 75.386719 C 108.078125 76.550781 106.316406 77.753906 104.582031 78.996094 C 102.847656 80.234375 101.140625 81.515625 99.460938 82.832031 C 97.78125 84.148438 96.132812 85.5 94.511719 86.886719 C 92.890625 88.277344 91.304688 89.699219 89.746094 91.160156 C 88.191406 92.617188 86.664062 94.109375 85.175781 95.636719 C 83.683594 97.164062 82.226562 98.71875 80.800781 100.308594 C 79.378906 101.898438 77.992188 103.519531 76.640625 105.171875 C 75.289062 106.820312 73.972656 108.5 72.695312 110.210938 C 71.417969 111.917969 70.179688 113.65625 68.976562 115.417969 C 67.777344 117.179688 66.613281 118.96875 65.492188 120.785156 C 64.367188 122.597656 63.285156 124.4375 62.246094 126.300781 C 61.203125 128.160156 60.203125 130.046875 59.242188 131.949219 C 58.285156 133.855469 57.367188 135.785156 56.492188 137.730469 C 55.621094 139.675781 54.789062 141.640625 54 143.625 C 53.210938 145.605469 52.46875 147.605469 51.769531 149.621094 C 51.070312 151.636719 50.414062 153.667969 49.804688 155.710938 C 49.191406 157.753906 48.628906 159.8125 48.105469 161.882812 C 47.585938 163.949219 47.113281 166.03125 46.683594 168.121094 C 46.253906 170.210938 45.871094 172.308594 45.535156 174.417969 C 44.433594 181.726562 43.882812 189.082031 43.875 196.472656 L 43.875 230.960938 C 43.859375 236.949219 44.425781 242.878906 45.574219 248.753906 C 46.722656 254.628906 48.433594 260.339844 50.707031 265.875 C 51.5625 268.007812 52.496094 270.101562 53.503906 272.164062 C 54.515625 274.222656 55.601562 276.242188 56.761719 278.222656 C 57.921875 280.203125 59.15625 282.136719 60.460938 284.023438 C 61.765625 285.910156 63.140625 287.746094 64.582031 289.53125 C 66.023438 291.316406 67.53125 293.046875 69.101562 294.71875 C 70.671875 296.390625 72.304688 298.003906 73.996094 299.554688 C 75.6875 301.105469 77.433594 302.59375 79.234375 304.011719 C 81.039062 305.433594 82.890625 306.785156 84.792969 308.070312 C 86.695312 309.351562 88.644531 310.5625 90.636719 311.699219 C 92.632812 312.835938 94.664062 313.898438 96.738281 314.882812 C 98.808594 315.867188 100.914062 316.777344 103.054688 317.605469 C 105.195312 318.433594 107.363281 319.179688 109.558594 319.847656 C 111.753906 320.515625 113.972656 321.097656 116.210938 321.601562 C 118.453125 322.101562 120.707031 322.519531 122.976562 322.851562 C 125.246094 323.183594 127.527344 323.433594 129.816406 323.597656 C 132.105469 323.761719 134.398438 323.835938 136.691406 323.828125 L 240.296875 323.828125 C 242.589844 323.839844 244.882812 323.761719 247.171875 323.597656 C 249.460938 323.4375 251.738281 323.1875 254.011719 322.855469 C 256.28125 322.523438 258.535156 322.109375 260.773438 321.609375 C 263.011719 321.105469 265.230469 320.523438 267.425781 319.859375 C 269.621094 319.191406 271.789062 318.445312 273.929688 317.617188 C 276.070312 316.789062 278.175781 315.882812 280.246094 314.898438 C 282.320312 313.914062 284.351562 312.851562 286.347656 311.714844 C 288.339844 310.582031 290.289062 309.371094 292.191406 308.089844 C 294.09375 306.808594 295.945312 305.457031 297.75 304.035156 C 299.550781 302.617188 301.296875 301.132812 302.988281 299.582031 C 304.679688 298.03125 306.3125 296.421875 307.882812 294.75 C 309.453125 293.078125 310.960938 291.347656 312.402344 289.5625 C 313.847656 287.777344 315.21875 285.945312 316.523438 284.058594 C 317.832031 282.171875 319.0625 280.238281 320.226562 278.257812 C 321.386719 276.28125 322.472656 274.261719 323.484375 272.199219 C 324.492188 270.140625 325.425781 268.046875 326.28125 265.917969 C 328.558594 260.375 330.273438 254.664062 331.429688 248.785156 C 332.582031 242.90625 333.148438 236.972656 333.132812 230.980469 L 333.132812 196.480469 C 333.128906 189.085938 332.574219 181.734375 331.472656 174.421875 C 331.136719 172.316406 330.753906 170.214844 330.324219 168.125 C 329.898438 166.035156 329.421875 163.957031 328.902344 161.886719 C 328.382812 159.816406 327.816406 157.757812 327.207031 155.714844 C 326.59375 153.667969 325.941406 151.636719 325.238281 149.621094 C 324.539062 147.605469 323.796875 145.605469 323.007812 143.625 C 322.21875 141.640625 321.390625 139.675781 320.515625 137.730469 C 319.640625 135.78125 318.722656 133.855469 317.765625 131.949219 C 316.804688 130.042969 315.804688 128.160156 314.761719 126.296875 C 313.71875 124.433594 312.636719 122.597656 311.515625 120.78125 C 310.390625 118.964844 309.230469 117.175781 308.027344 115.414062 C 306.824219 113.648438 305.585938 111.914062 304.308594 110.207031 C 303.03125 108.496094 301.714844 106.816406 300.363281 105.164062 C 299.011719 103.515625 297.625 101.894531 296.199219 100.304688 C 294.777344 98.714844 293.320312 97.15625 291.828125 95.628906 C 290.335938 94.101562 288.8125 92.609375 287.253906 91.152344 C 285.695312 89.691406 284.105469 88.269531 282.488281 86.878906 C 280.867188 85.492188 279.214844 84.136719 277.535156 82.824219 C 275.855469 81.507812 274.148438 80.226562 272.414062 78.984375 C 270.675781 77.746094 268.914062 76.542969 267.125 75.378906 C 265.335938 74.214844 263.523438 73.089844 261.6875 72.007812 C 259.847656 70.921875 257.984375 69.878906 256.101562 68.878906 C 254.21875 67.875 252.3125 66.917969 250.386719 66 C 248.460938 65.078125 246.515625 64.203125 244.550781 63.371094 C 242.585938 62.539062 240.601562 61.75 238.601562 61.003906 C 236.601562 60.257812 234.585938 59.558594 232.558594 58.902344 C 230.527344 58.246094 228.484375 57.632812 226.425781 57.066406 C 224.367188 56.5 222.300781 55.980469 220.21875 55.503906 C 218.136719 55.027344 216.046875 54.597656 213.949219 54.214844 C 211.851562 53.828125 209.742188 53.492188 207.628906 53.203125 C 205.515625 52.910156 203.394531 52.664062 201.269531 52.46875 C 199.144531 52.269531 197.019531 52.117188 194.886719 52.015625 C 192.753906 51.910156 190.621094 51.851562 188.488281 51.84375 Z M 312.371094 228.890625 C 312.371094 230.160156 312.335938 231.429688 312.273438 232.699219 C 312.210938 233.964844 312.113281 235.234375 311.988281 236.496094 C 311.863281 237.761719 311.707031 239.019531 311.519531 240.277344 C 311.332031 241.53125 311.113281 242.785156 310.863281 244.027344 C 310.613281 245.273438 310.335938 246.511719 310.027344 247.746094 C 309.714844 248.976562 309.375 250.199219 309.007812 251.414062 C 308.636719 252.628906 308.238281 253.835938 307.808594 255.03125 C 307.378906 256.226562 306.921875 257.410156 306.433594 258.582031 C 305.949219 259.757812 305.433594 260.917969 304.890625 262.066406 C 304.347656 263.210938 303.773438 264.347656 303.175781 265.464844 C 302.574219 266.585938 301.949219 267.691406 301.296875 268.78125 C 300.640625 269.867188 299.960938 270.941406 299.257812 271.996094 C 298.550781 273.050781 297.820312 274.089844 297.0625 275.109375 C 296.304688 276.128906 295.523438 277.128906 294.71875 278.113281 C 293.910156 279.09375 293.082031 280.054688 292.226562 280.996094 C 291.375 281.9375 290.5 282.855469 289.601562 283.753906 C 288.703125 284.652344 287.78125 285.527344 286.839844 286.378906 C 285.902344 287.234375 284.9375 288.0625 283.957031 288.867188 C 282.976562 289.671875 281.972656 290.453125 280.953125 291.210938 C 279.933594 291.96875 278.894531 292.699219 277.839844 293.402344 C 276.785156 294.109375 275.710938 294.789062 274.621094 295.441406 C 273.53125 296.09375 272.429688 296.722656 271.308594 297.320312 C 270.1875 297.917969 269.054688 298.488281 267.90625 299.035156 C 266.757812 299.578125 265.597656 300.089844 264.421875 300.578125 C 263.25 301.0625 262.066406 301.519531 260.871094 301.949219 C 259.675781 302.378906 258.46875 302.777344 257.253906 303.144531 C 256.039062 303.515625 254.816406 303.855469 253.582031 304.164062 C 252.351562 304.472656 251.113281 304.75 249.867188 305 C 248.621094 305.25 247.371094 305.464844 246.113281 305.652344 C 244.859375 305.839844 243.597656 305.996094 242.335938 306.121094 C 241.070312 306.246094 239.804688 306.339844 238.535156 306.40625 C 237.265625 306.46875 235.996094 306.5 234.726562 306.5 L 142.25 306.5 C 140.980469 306.5 139.710938 306.464844 138.441406 306.402344 C 137.171875 306.339844 135.90625 306.246094 134.644531 306.121094 C 133.378906 305.992188 132.121094 305.835938 130.863281 305.648438 C 129.609375 305.460938 128.359375 305.242188 127.113281 304.996094 C 125.867188 304.746094 124.628906 304.46875 123.398438 304.15625 C 122.167969 303.847656 120.945312 303.507812 119.726562 303.140625 C 118.511719 302.769531 117.308594 302.371094 116.113281 301.941406 C 114.917969 301.515625 113.734375 301.058594 112.5625 300.570312 C 111.386719 300.082031 110.226562 299.570312 109.082031 299.023438 C 107.933594 298.480469 106.796875 297.910156 105.679688 297.3125 C 104.558594 296.710938 103.457031 296.085938 102.367188 295.433594 C 101.277344 294.78125 100.203125 294.101562 99.148438 293.394531 C 98.09375 292.6875 97.054688 291.957031 96.035156 291.203125 C 95.015625 290.445312 94.015625 289.664062 93.035156 288.859375 C 92.054688 288.050781 91.089844 287.222656 90.152344 286.371094 C 89.210938 285.515625 88.289062 284.640625 87.394531 283.746094 C 86.496094 282.847656 85.621094 281.925781 84.765625 280.988281 C 83.914062 280.046875 83.085938 279.085938 82.277344 278.101562 C 81.472656 277.121094 80.691406 276.121094 79.933594 275.101562 C 79.179688 274.082031 78.445312 273.042969 77.742188 271.988281 C 77.035156 270.933594 76.355469 269.859375 75.703125 268.773438 C 75.050781 267.683594 74.421875 266.578125 73.824219 265.460938 C 73.226562 264.339844 72.652344 263.207031 72.109375 262.058594 C 71.566406 260.910156 71.050781 259.75 70.566406 258.578125 C 70.078125 257.40625 69.621094 256.21875 69.191406 255.027344 C 68.761719 253.832031 68.363281 252.625 67.996094 251.410156 C 67.625 250.195312 67.285156 248.972656 66.976562 247.742188 C 66.667969 246.507812 66.386719 245.269531 66.136719 244.027344 C 65.890625 242.78125 65.671875 241.53125 65.484375 240.273438 C 65.296875 239.019531 65.140625 237.757812 65.015625 236.496094 C 64.886719 235.230469 64.792969 233.964844 64.730469 232.699219 C 64.664062 231.429688 64.632812 230.160156 64.632812 228.890625 L 64.632812 195.363281 C 64.632812 193.90625 64.707031 192.449219 64.851562 191 C 64.996094 189.550781 65.210938 188.109375 65.496094 186.679688 C 65.78125 185.25 66.136719 183.835938 66.5625 182.441406 C 66.984375 181.046875 67.476562 179.675781 68.035156 178.332031 C 68.59375 176.984375 69.21875 175.667969 69.90625 174.382812 C 70.59375 173.097656 71.339844 171.847656 72.152344 170.636719 C 72.960938 169.425781 73.828125 168.253906 74.753906 167.128906 C 75.679688 166 76.65625 164.921875 77.6875 163.890625 C 78.71875 162.859375 79.796875 161.882812 80.925781 160.957031 C 82.050781 160.03125 83.222656 159.164062 84.433594 158.355469 C 85.644531 157.542969 86.894531 156.792969 88.179688 156.105469 C 89.464844 155.417969 90.78125 154.792969 92.125 154.234375 C 93.472656 153.675781 94.84375 153.183594 96.238281 152.761719 C 97.632812 152.335938 99.046875 151.980469 100.476562 151.695312 C 101.90625 151.410156 103.34375 151.195312 104.796875 151.050781 C 106.246094 150.90625 107.699219 150.832031 109.15625 150.832031 L 267.816406 150.832031 C 269.277344 150.832031 270.730469 150.90625 272.179688 151.050781 C 273.632812 151.195312 275.070312 151.410156 276.5 151.695312 C 277.929688 151.980469 279.34375 152.335938 280.738281 152.761719 C 282.132812 153.183594 283.503906 153.675781 284.851562 154.234375 C 286.195312 154.792969 287.511719 155.417969 288.796875 156.105469 C 290.082031 156.792969 291.332031 157.542969 292.542969 158.355469 C 293.753906 159.164062 294.925781 160.03125 296.050781 160.957031 C 297.179688 161.882812 298.257812 162.859375 299.289062 163.890625 C 300.320312 164.921875 301.296875 166 302.222656 167.128906 C 303.148438 168.253906 304.015625 169.425781 304.824219 170.636719 C 305.636719 171.847656 306.382812 173.097656 307.070312 174.382812 C 307.757812 175.667969 308.382812 176.984375 308.941406 178.332031 C 309.5 179.675781 309.992188 181.046875 310.414062 182.441406 C 310.839844 183.835938 311.195312 185.25 311.480469 186.679688 C 311.765625 188.109375 311.980469 189.550781 312.125 191 C 312.269531 192.449219 312.34375 193.90625 312.34375 195.363281 Z M 312.371094 228.890625 " fill-opacity="1" fill-rule="nonzero"/><path fill="#ffffff" d="M 267.816406 164.058594 L 109.15625 164.058594 C 108.132812 164.058594 107.109375 164.109375 106.089844 164.210938 C 105.070312 164.3125 104.058594 164.464844 103.054688 164.667969 C 102.050781 164.867188 101.054688 165.117188 100.074219 165.414062 C 99.09375 165.714844 98.132812 166.058594 97.183594 166.453125 C 96.238281 166.84375 95.3125 167.28125 94.410156 167.765625 C 93.507812 168.25 92.628906 168.777344 91.777344 169.347656 C 90.925781 169.917969 90.101562 170.527344 89.3125 171.175781 C 88.519531 171.828125 87.761719 172.515625 87.035156 173.238281 C 86.3125 173.964844 85.625 174.722656 84.972656 175.515625 C 84.324219 176.308594 83.714844 177.128906 83.144531 177.980469 C 82.574219 178.832031 82.046875 179.710938 81.566406 180.613281 C 81.082031 181.519531 80.644531 182.441406 80.25 183.390625 C 79.859375 184.335938 79.511719 185.300781 79.214844 186.28125 C 78.917969 187.261719 78.667969 188.253906 78.46875 189.257812 C 78.265625 190.265625 78.113281 191.277344 78.015625 192.296875 C 77.914062 193.316406 77.859375 194.339844 77.859375 195.363281 L 77.859375 228.890625 C 77.859375 229.945312 77.886719 230.996094 77.941406 232.046875 C 77.996094 233.101562 78.074219 234.152344 78.175781 235.199219 C 78.28125 236.246094 78.410156 237.292969 78.566406 238.332031 C 78.722656 239.375 78.902344 240.414062 79.109375 241.445312 C 79.316406 242.480469 79.546875 243.507812 79.804688 244.527344 C 80.0625 245.550781 80.34375 246.5625 80.652344 247.570312 C 80.957031 248.578125 81.289062 249.578125 81.644531 250.570312 C 82 251.5625 82.378906 252.542969 82.78125 253.515625 C 83.1875 254.492188 83.613281 255.453125 84.066406 256.40625 C 84.515625 257.355469 84.988281 258.296875 85.488281 259.226562 C 85.984375 260.15625 86.503906 261.070312 87.046875 261.972656 C 87.585938 262.878906 88.152344 263.765625 88.734375 264.640625 C 89.320312 265.519531 89.929688 266.378906 90.554688 267.226562 C 91.183594 268.070312 91.832031 268.902344 92.5 269.714844 C 93.167969 270.527344 93.855469 271.328125 94.5625 272.105469 C 95.273438 272.886719 95.996094 273.648438 96.742188 274.394531 C 97.488281 275.140625 98.25 275.867188 99.03125 276.574219 C 99.8125 277.28125 100.609375 277.96875 101.421875 278.636719 C 102.238281 279.304688 103.066406 279.953125 103.914062 280.582031 C 104.757812 281.207031 105.621094 281.816406 106.496094 282.398438 C 107.371094 282.984375 108.261719 283.550781 109.164062 284.089844 C 110.066406 284.632812 110.984375 285.152344 111.914062 285.648438 C 112.839844 286.144531 113.78125 286.621094 114.734375 287.070312 C 115.6875 287.519531 116.648438 287.949219 117.621094 288.351562 C 118.59375 288.757812 119.578125 289.136719 120.566406 289.492188 C 121.558594 289.847656 122.558594 290.175781 123.566406 290.484375 C 124.574219 290.789062 125.589844 291.070312 126.609375 291.328125 C 127.632812 291.585938 128.660156 291.816406 129.691406 292.023438 C 130.726562 292.230469 131.761719 292.410156 132.804688 292.566406 C 133.847656 292.722656 134.890625 292.851562 135.941406 292.957031 C 136.988281 293.058594 138.039062 293.136719 139.089844 293.191406 C 140.144531 293.246094 141.195312 293.269531 142.25 293.273438 L 234.726562 293.273438 C 235.78125 293.269531 236.832031 293.246094 237.886719 293.191406 C 238.9375 293.136719 239.988281 293.058594 241.035156 292.957031 C 242.085938 292.851562 243.128906 292.722656 244.171875 292.566406 C 245.214844 292.410156 246.25 292.230469 247.285156 292.023438 C 248.316406 291.816406 249.34375 291.585938 250.367188 291.328125 C 251.386719 291.070312 252.402344 290.789062 253.410156 290.484375 C 254.417969 290.175781 255.417969 289.847656 256.410156 289.492188 C 257.398438 289.136719 258.382812 288.757812 259.355469 288.351562 C 260.328125 287.949219 261.289062 287.519531 262.242188 287.070312 C 263.195312 286.621094 264.136719 286.144531 265.0625 285.648438 C 265.992188 285.152344 266.910156 284.632812 267.8125 284.089844 C 268.714844 283.550781 269.605469 282.984375 270.480469 282.398438 C 271.355469 281.816406 272.21875 281.207031 273.0625 280.582031 C 273.910156 279.953125 274.738281 279.304688 275.554688 278.636719 C 276.367188 277.96875 277.164062 277.28125 277.945312 276.574219 C 278.726562 275.867188 279.488281 275.140625 280.234375 274.394531 C 280.980469 273.648438 281.703125 272.886719 282.414062 272.105469 C 283.121094 271.324219 283.808594 270.527344 284.476562 269.714844 C 285.144531 268.902344 285.792969 268.070312 286.421875 267.226562 C 287.046875 266.378906 287.65625 265.519531 288.242188 264.640625 C 288.824219 263.765625 289.390625 262.878906 289.929688 261.972656 C 290.472656 261.070312 290.992188 260.15625 291.488281 259.226562 C 291.988281 258.296875 292.460938 257.355469 292.910156 256.40625 C 293.363281 255.453125 293.789062 254.492188 294.195312 253.515625 C 294.597656 252.542969 294.976562 251.5625 295.332031 250.570312 C 295.6875 249.578125 296.019531 248.578125 296.324219 247.570312 C 296.632812 246.5625 296.914062 245.550781 297.171875 244.527344 C 297.429688 243.507812 297.660156 242.480469 297.867188 241.445312 C 298.074219 240.414062 298.253906 239.375 298.410156 238.332031 C 298.566406 237.292969 298.695312 236.246094 298.800781 235.199219 C 298.902344 234.152344 298.980469 233.101562 299.035156 232.046875 C 299.089844 230.996094 299.113281 229.945312 299.117188 228.890625 L 299.117188 195.363281 C 299.117188 194.339844 299.0625 193.316406 298.960938 192.296875 C 298.863281 191.277344 298.710938 190.265625 298.507812 189.257812 C 298.308594 188.253906 298.058594 187.261719 297.761719 186.28125 C 297.464844 185.300781 297.117188 184.335938 296.726562 183.390625 C 296.332031 182.445312 295.894531 181.519531 295.410156 180.613281 C 294.929688 179.710938 294.402344 178.832031 293.832031 177.980469 C 293.261719 177.128906 292.652344 176.308594 292.003906 175.515625 C 291.351562 174.722656 290.664062 173.964844 289.941406 173.238281 C 289.214844 172.515625 288.457031 171.828125 287.664062 171.175781 C 286.875 170.527344 286.050781 169.917969 285.199219 169.347656 C 284.347656 168.777344 283.46875 168.25 282.566406 167.765625 C 281.664062 167.28125 280.738281 166.84375 279.789062 166.453125 C 278.84375 166.058594 277.882812 165.714844 276.902344 165.414062 C 275.921875 165.117188 274.925781 164.867188 273.921875 164.667969 C 272.917969 164.464844 271.90625 164.3125 270.886719 164.210938 C 269.867188 164.109375 268.84375 164.058594 267.816406 164.058594 Z M 127.851562 262.609375 C 127.578125 263.167969 127.238281 263.679688 126.824219 264.144531 C 126.40625 264.605469 125.9375 265.003906 125.410156 265.332031 C 124.882812 265.664062 124.324219 265.914062 123.726562 266.085938 C 123.128906 266.257812 122.519531 266.347656 121.898438 266.347656 C 120.886719 266.351562 119.933594 266.128906 119.027344 265.683594 C 116.539062 264.488281 114.191406 263.070312 111.980469 261.421875 C 109.765625 259.777344 107.730469 257.933594 105.871094 255.898438 C 104.011719 253.859375 102.363281 251.664062 100.921875 249.3125 C 99.484375 246.960938 98.285156 244.492188 97.320312 241.90625 C 96.058594 238.328125 95.296875 234.644531 95.035156 230.855469 C 94.773438 227.070312 95.023438 223.316406 95.785156 219.597656 C 95.871094 219.171875 95.996094 218.757812 96.164062 218.355469 C 96.332031 217.957031 96.535156 217.574219 96.777344 217.214844 C 97.019531 216.855469 97.292969 216.519531 97.601562 216.214844 C 97.910156 215.90625 98.242188 215.632812 98.605469 215.394531 C 98.964844 215.152344 99.347656 214.949219 99.75 214.785156 C 100.152344 214.617188 100.566406 214.496094 100.992188 214.410156 C 101.417969 214.328125 101.847656 214.285156 102.28125 214.285156 C 102.714844 214.285156 103.148438 214.328125 103.574219 214.414062 C 104 214.5 104.410156 214.628906 104.8125 214.792969 C 105.214844 214.960938 105.59375 215.164062 105.957031 215.40625 C 106.316406 215.648438 106.648438 215.925781 106.957031 216.230469 C 107.261719 216.539062 107.535156 216.875 107.777344 217.234375 C 108.015625 217.597656 108.21875 217.980469 108.386719 218.378906 C 108.550781 218.78125 108.675781 219.195312 108.757812 219.621094 C 108.84375 220.046875 108.886719 220.480469 108.882812 220.914062 C 108.882812 221.347656 108.839844 221.777344 108.753906 222.203125 C 108.234375 224.738281 108.058594 227.296875 108.230469 229.878906 C 108.402344 232.460938 108.917969 234.972656 109.773438 237.414062 C 110.445312 239.191406 111.277344 240.890625 112.273438 242.507812 C 113.269531 244.125 114.410156 245.632812 115.695312 247.03125 C 116.980469 248.429688 118.386719 249.691406 119.914062 250.824219 C 121.441406 251.953125 123.0625 252.925781 124.773438 253.746094 C 125.167969 253.933594 125.539062 254.160156 125.886719 254.421875 C 126.234375 254.6875 126.554688 254.980469 126.84375 255.304688 C 127.136719 255.632812 127.390625 255.980469 127.613281 256.359375 C 127.832031 256.734375 128.015625 257.128906 128.160156 257.539062 C 128.300781 257.953125 128.402344 258.375 128.460938 258.808594 C 128.519531 259.238281 128.539062 259.671875 128.511719 260.109375 C 128.484375 260.542969 128.414062 260.972656 128.304688 261.394531 C 128.191406 261.816406 128.042969 262.222656 127.851562 262.617188 Z M 127.851562 262.609375 " fill-opacity="1" fill-rule="nonzero"/><g clip-path="url(#631bcf80d3)"><g clip-path="url(#cfb19367fb)"><g transform="matrix(1, 0, 0, 1, 89, 199)"><g clip-path="url(#9c78b4f059)"><g clip-path="url(#a89e9345e6)"><g clip-path="url(#6a12ed2c23)"><path fill="#ffffff" d="M 0.613281 70.851562 L 0.613281 0.265625 L 67.785156 0.265625 L 67.785156 70.851562 Z M 0.613281 70.851562 " fill-opacity="1" fill-rule="nonzero"/></g></g></g></g></g></g><g transform="matrix(1, 0, 0, 1, 129, 192)"><g clip-path="url(#4f8ffd2c02)"><g clip-path="url(#49b93e17b2)"><g clip-path="url(#2507d91bea)"><g clip-path="url(#df1571def7)"><g transform="matrix(1, 0, 0, 1, 4, 28)"><g clip-path="url(#40124ad753)"><g clip-path="url(#8daa33f2ce)"><g clip-path="url(#470a60a197)"><g clip-path="url(#156d479827)"><path fill="#000000" d="M -3.621094 35.089844 L 34.828125 -3.363281 L 49.585938 11.394531 L 11.136719 49.847656 Z M -3.621094 35.089844 " fill-opacity="1" fill-rule="nonzero"/></g></g></g></g></g></g></g></g><g clip-path="url(#7c21db0763)"><g clip-path="url(#d4f3836622)"><g clip-path="url(#4e641bec83)"><g transform="matrix(1, 0, 0, 1, 4, 5)"><g clip-path="url(#1afe99bc6e)"><g clip-path="url(#a494841620)"><g clip-path="url(#22591a3670)"><g clip-path="url(#2ed88f6f6c)"><path fill="#000000" d="M 11.121094 -4.027344 L 49.570312 34.425781 L 34.8125 49.183594 L -3.640625 10.730469 Z M 11.121094 -4.027344 " fill-opacity="1" fill-rule="nonzero"/></g></g></g></g></g></g></g></g><g clip-path="url(#3005fee35a)"><g clip-path="url(#2e4f0957bc)"><g transform="matrix(1, 0, 0, 1, 62, 56)"><g clip-path="url(#7f5aea8c63)"><g clip-path="url(#5cbd4be29a)"><g clip-path="url(#b18e3a8c33)"><path fill="#000000" d="M 0.269531 0.980469 L 54.648438 0.980469 L 54.648438 21.851562 L 0.269531 21.851562 Z M 0.269531 0.980469 " fill-opacity="1" fill-rule="nonzero"/></g></g></g></g></g></g></g></g></svg>